<svg xmlns="http://www.w3.org/2000/svg" version="1.1" xmlns:xlink="http://www.w3.org/1999/xlink" xmlns:svgjs="http://svgjs.dev/svgjs" width="1000" height="750" viewBox="0 0 1000 750"><rect width="1000" height="750" fill="#000000"></rect><g transform="matrix(0.834,0,0,0.834,82.49490057281673,251.0892915163094)"><svg viewBox="0 0 396 118" data-background-color="#000000" preserveAspectRatio="xMidYMid meet" height="297" width="1000" xmlns="http://www.w3.org/2000/svg" xmlns:xlink="http://www.w3.org/1999/xlink"><g id="tight-bounds" transform="matrix(1,0,0,1,0.24008861730862918,0.029397092731841212)"><svg viewBox="0 0 395.52 117.94120581453632" height="117.94120581453632" width="395.52"><g><svg viewBox="0 0 395.52 117.94120581453632" height="117.94120581453632" width="395.52"><g><svg viewBox="0 0 395.52 117.94120581453632" height="117.94120581453632" width="395.52"><g id="textblocktransform"><svg viewBox="0 0 395.52 117.94120581453632" height="117.94120581453632" width="395.52" id="textblock"><g><svg viewBox="0 0 395.52 117.94120581453632" height="117.94120581453632" width="395.52"><path d="M394.594 25.296C392.735 13.054 387.435 9.651 387.435 9.651 371.165-2.959 350.86-0.241 332.619 1.571 300.414 1.644 268.339 4.337 236.208 5.782 168.767 6.002 100.749 2.379 33.643 11.315 27.339 14.058-6.54 11.854 1.121 26.863 3.129 33.107 10.456 40.036 10.232 45.765 11.236 46.769 12.631 44.468 13.226 45.912 15.309 49.805 18.711 47.969 21.501 50.27 17.614 56.416 20.403 61.533 23.062 66.895 18.377 68.291 12.371 67.63 9.675 72.257 9.396 75.612 7.89 74.975 6.235 74.828 5.026 74.73 2.59 75.098 2.999 76.15 4.394 79.75-1.594 81.831 2.162 85.357-0.422 89.176 3.948 92.482 3.353 96.62 3.278 97.452 3.687 98.162 4.338 98.358 7.22 99.411 3.018 101.467 3.464 103.696 33.029 118.925 65.104 108.397 95.394 115.399 103.259 110.502 97.346 117.138 100.489 116.109 102.943 114.909 104.728 119.88 107.499 117.064 107.927 116.256 107.276 114.346 108.8 114.714 109.6 114.909 110.307 114.86 110.418 113.734 110.586 112.045 109.117 113.098 108.726 112.216 112.947 107.76 111.906 118.362 115.866 117.921 115.68 116.623 114.528 114.763 116.889 115.007 119.232 113.147 119.306 111.604 121.389 115.791 121.463 116.697 121.835 117.333 122.43 117.774 128.938 113.22 135.409 119.39 142.233 117.333 146.417 115.081 150.433 118.558 154.672 117.701 156.16 117.015 157.666 115.791 159.098 117.848 176.632 118.288 195.319 116.452 211.943 117.921 256.364 115.179 303.836 119.047 350.674 115.424 361.719 114.028 373.192 112.045 383.958 110.453 383.958 110.453 392.679 106.095 392.679 86.507S394.538 69.368 394.817 53.772C395.096 38.175 396.398 37.538 394.538 25.296Z" opacity="1" fill="#ffffdd" data-fill-palette-color="tertiary"></path><g transform="matrix(1,0,0,1,55.76832,26.230666666666668)"><svg width="283.98335999999995" viewBox="0.5 -36 199.49 46" height="65.47987248120299" data-palette-color="#1f0f53"><path d="M20.25-30.75L12.75-12.25 28.25-12.25 20.75-30.75 20.25-30.75ZM14.75-35L26.25-35 40.5 0 33.3 0 30-8.5 11-8.5 7.7 0 0.5 0 14.75-35ZM51.75-25.5L51.75 0 44.75 0 44.75-25.5 51.75-25.5ZM52-32.25L52-32.25Q52-30.75 50.97-29.63 49.95-28.5 48.25-28.5L48.25-28.5Q46.55-28.5 45.52-29.63 44.5-30.75 44.5-32.25L44.5-32.25Q44.5-33.75 45.52-34.88 46.55-36 48.25-36L48.25-36Q49.9-36 50.95-34.88 52-33.75 52-32.25ZM59 0L59-26 85-26Q92.15-26 95.57-23.43 99-20.85 99-15.75L99-15.75 99 0 92 0 92-15.75Q92-19.35 90.2-20.93 88.4-22.5 85-22.5L85-22.5 82.5-22.5 82.5 0 75.5 0 75.5-22.5 66-22.5 66 0 59 0ZM111.49-8.25L111.49-8.25Q111.49-3.5 117.24-3.5L117.24-3.5 124.24-3.5 124.24-13 117.24-13Q111.49-13 111.49-8.25ZM117.24-16.5L124.24-16.5Q124.24-20.1 122.37-21.8 120.49-23.5 117.49-23.5L117.49-23.5Q115.24-23.5 113.09-22.83 110.94-22.15 109.24-21L109.24-21 107.49-24Q108.59-24.75 109.92-25.3 111.24-25.85 112.64-26.23 114.04-26.6 115.42-26.8 116.79-27 117.99-27L117.99-27Q121.19-27 123.64-26.25 126.09-25.5 127.79-24.1 129.49-22.7 130.37-20.78 131.24-18.85 131.24-16.5L131.24-16.5 131.24 0 117.24 0Q110.44 0 107.22-2.05 103.99-4.1 103.99-8.25L103.99-8.25Q103.99-12.4 107.22-14.45 110.44-16.5 117.24-16.5L117.24-16.5ZM158.24-22.5L151.99-22.5Q148.39-22.5 146.31-20.28 144.24-18.05 144.24-13.5L144.24-13.5Q144.24-8.95 146.31-6.73 148.39-4.5 151.99-4.5L151.99-4.5 158.24-4.5 158.24-22.5ZM165.24-26L165.24-0.5Q165.24 1.85 164.34 3.78 163.44 5.7 161.67 7.1 159.89 8.5 157.22 9.25 154.54 10 150.99 10L150.99 10Q149.79 10 148.42 9.83 147.04 9.65 145.64 9.28 144.24 8.9 142.92 8.33 141.59 7.75 140.49 7L140.49 7 142.24 4Q143.94 5.15 146.09 5.83 148.24 6.5 150.49 6.5L150.49 6.5Q154.24 6.5 156.24 4.8 158.24 3.1 158.24-0.5L158.24-0.5 158.24-1 151.99-1Q148.54-1 145.72-1.9 142.89-2.8 140.89-4.45 138.89-6.1 137.81-8.4 136.74-10.7 136.74-13.5L136.74-13.5Q136.74-16.3 137.81-18.6 138.89-20.9 140.89-22.55 142.89-24.2 145.72-25.1 148.54-26 151.99-26L151.99-26 165.24-26ZM187.24-2.5L187.24-2.5Q189.69-2.5 191.81-3.35 193.94-4.2 195.99-5.75L195.99-5.75 197.99-2.75Q197.04-1.9 195.76-1.2 194.49-0.5 193.01-0.03 191.54 0.45 189.94 0.73 188.34 1 186.74 1L186.74 1Q183.19 1 180.26 0.08 177.34-0.85 175.29-2.63 173.24-4.4 172.11-7 170.99-9.6 170.99-13L170.99-13Q170.99-16.35 172.06-18.98 173.14-21.6 175.06-23.38 176.99-25.15 179.64-26.08 182.29-27 185.49-27L185.49-27Q188.49-27 191.14-26.1 193.79-25.2 195.74-23.48 197.69-21.75 198.84-19.3 199.99-16.85 199.99-13.75L199.99-13.75 199.99-10.25 178.64-10.25Q179.24-6.1 181.51-4.3 183.79-2.5 187.24-2.5ZM185.49-23.75L185.49-23.75Q184.04-23.75 182.79-23.2 181.54-22.65 180.61-21.45 179.69-20.25 179.11-18.35 178.54-16.45 178.49-13.75L178.49-13.75 192.49-13.75Q192.49-16.35 191.89-18.25 191.29-20.15 190.31-21.38 189.34-22.6 188.06-23.18 186.79-23.75 185.49-23.75Z" opacity="1" transform="matrix(1,0,0,1,0,0)" fill="#1f0f53" class="wordmark-text-0" data-fill-palette-color="quaternary" id="text-0"></path></svg></g></svg></g></svg></g></svg></g><g></g></svg></g><defs></defs></svg><rect width="395.52" height="117.94120581453632" fill="none" stroke="none" visibility="hidden"></rect></g></svg></g></svg>